<svg xmlns="http://www.w3.org/2000/svg" width="197.112" height="155.135" viewBox="0 0 197.112 155.135">
  <g id="logo" transform="translate(-51.1)">
    <g id="Group_5" data-name="Group 5" transform="translate(51.1 3.607)">
      <g id="Group_3" data-name="Group 3">
        <g id="Group_1" data-name="Group 1" transform="translate(0 7.344)">
          <path id="Path_1" data-name="Path 1" d="M203.558,99.522a11.711,11.711,0,0,1-7,4.137V82.123l.182-.061c3.1-.548,5.415-.122,7,1.278,1.643,1.46,2.434,3.954,2.434,7.361A13.6,13.6,0,0,1,203.558,99.522Zm8.274-25.43c-4.137-3.042-10.038-3.894-17.46-2.433l-9.43,1.764V116.8l10.768-2.008c7-1.278,12.593-4.2,16.487-8.578,4.015-4.441,6.023-10.1,6.023-16.791C218.22,82.245,216.03,77.134,211.832,74.092Zm-15.088-45.08c3.1-.548,5.415-.122,7,1.278,1.643,1.46,2.434,3.954,2.434,7.422a13.978,13.978,0,0,1-2.677,8.821,11.71,11.71,0,0,1-7,4.137V29.134ZM212.2,53.1q6.023-6.753,6.023-16.791c0-7-2.19-12.167-6.388-15.209-4.137-3.042-9.977-3.833-17.46-2.433l-9.491,1.7V63.689l10.768-2.008C202.645,60.4,208.242,57.484,212.2,53.1ZM169,76.222v43.316l11.62-2.129V74.092ZM180.622,21.1,169,23.232V66.549l11.62-2.129ZM159.329,83.826a4.291,4.291,0,0,0-.548-.426,17.869,17.869,0,0,0-2.859-1.886l-4.5,12.046a6.491,6.491,0,0,1,1.46,2.616,7.9,7.9,0,0,1,.548,2.433,16.183,16.183,0,0,1,.122,1.825,14.255,14.255,0,0,1-2.738,8.7,10.149,10.149,0,0,1-1.947,2.008,7.353,7.353,0,0,1-1.825,1.217,10.1,10.1,0,0,1-2.373.913l-1.156.548-10.768,5.475L129.4,121l5.475-16.3v-.061a14.255,14.255,0,0,1,2.738-8.7l.3-.365,5.11-15.331a24.341,24.341,0,0,0-14.114,8.882,26.3,26.3,0,0,0-5.962,16.852c0,6.388,2.068,11.5,6.205,15.148a13.286,13.286,0,0,0,2.19,1.582h0a16.633,16.633,0,0,0,9.126,2.555,23.6,23.6,0,0,0,4.076-.365,27.355,27.355,0,0,0,4.5-1.278,24.975,24.975,0,0,0,10.342-7.787,30.273,30.273,0,0,0,2.008-2.859,26.105,26.105,0,0,0,3.894-13.141c0-.3.061-.548.061-.913a26.148,26.148,0,0,0-.608-5.536A16.144,16.144,0,0,0,159.329,83.826ZM129.337,68.069a15.036,15.036,0,0,0,1.643,1.278,16.52,16.52,0,0,0,9.673,2.92,23.6,23.6,0,0,0,4.076-.365,24.329,24.329,0,0,0,14.844-9.065,23.814,23.814,0,0,0,2.434-3.65,26.162,26.162,0,0,0,3.468-13.263c0-6.388-2.068-11.5-6.205-15.148a16.606,16.606,0,0,0-11.377-4.137c-.73,0-1.46.061-2.19.122l-1.034,11.8a9.285,9.285,0,0,1,1.825-.183,4.7,4.7,0,0,1,.913.122,6.033,6.033,0,0,1,3.589,1.7c1.7,1.643,2.494,4.015,2.494,7.24a14.255,14.255,0,0,1-2.738,8.7,10.4,10.4,0,0,1-6.875,4.319,3.556,3.556,0,0,1-1.156.122c-.3,0-.548.061-.73.061a6.51,6.51,0,0,1-2.494-.426,6.111,6.111,0,0,1-2.008-1.338,8.384,8.384,0,0,1-2.312-4.563,17.476,17.476,0,0,1-.243-2.677,14.13,14.13,0,0,1,2.738-8.7,2.477,2.477,0,0,1,.73-.852l3.772-14.6c-5.475,1.217-9.43,4.015-13.141,8.7a26.3,26.3,0,0,0-5.962,16.852C123.131,59.37,125.2,64.48,129.337,68.069Zm-21.9,35.346A8.265,8.265,0,0,1,104.15,105V98.549h.061a13.74,13.74,0,0,1,2.008-.243,3.266,3.266,0,0,1,1.582.3c.548.3.669,1.278.669,2.008A3.582,3.582,0,0,1,107.435,103.416Zm10.342,3.954a14.751,14.751,0,0,0,2.616-8.882c0-4.319-1.46-7.422-4.38-9.186-2.738-1.764-6.57-2.129-11.437-1.217l-12.167,2.19v43.316l11.62-2.129V119.6l6.084,10.768,13.506-2.494-10.525-16.487A11.928,11.928,0,0,0,117.778,107.37ZM104.089,45.56h0a15.532,15.532,0,0,1,2.068-.243,3.266,3.266,0,0,1,1.582.3c.548.3.669,1.278.669,2.008a3.543,3.543,0,0,1-1.034,2.8,8.265,8.265,0,0,1-3.285,1.582V45.56Zm0,21.05,6.084,10.768,13.506-2.494L113.154,58.4a12.484,12.484,0,0,0,4.563-4.015,14.751,14.751,0,0,0,2.616-8.882c0-4.319-1.46-7.422-4.38-9.186-2.738-1.764-6.57-2.129-11.437-1.217l-12.167,2.19V80.6l11.62-2.129ZM63.693,109.2a4.606,4.606,0,0,1-2.738,1.764,3.491,3.491,0,0,1-.73.061,2.064,2.064,0,0,1-1.582-.608,3.627,3.627,0,0,1-.913-2.8,5.472,5.472,0,0,1,1.156-3.529,4.26,4.26,0,0,1,2.738-1.7,3.491,3.491,0,0,1,.73-.061,2.064,2.064,0,0,1,1.582.608,3.627,3.627,0,0,1,.913,2.8A6.072,6.072,0,0,1,63.693,109.2Zm18.069-16.73v8.761L75.739,93.56l-5.536.973v5.415A9.266,9.266,0,0,0,68.378,97.7a8.188,8.188,0,0,0-7.422-1.825,11.888,11.888,0,0,0-7.057,4.319,12.54,12.54,0,0,0-2.8,8.031,8.917,8.917,0,0,0,3.042,7.24,8.227,8.227,0,0,0,5.475,2.008,11.051,11.051,0,0,0,1.947-.183,11.888,11.888,0,0,0,7.057-4.319,13.379,13.379,0,0,0,1.643-2.616v4.928l6.388-1.156V105.3l6.084,7.726,5.536-.973V91.248ZM66.37,52.921c3.1-.548,5.415-.122,7,1.338,1.643,1.46,2.433,3.954,2.433,7.361a13.978,13.978,0,0,1-2.677,8.821,11.711,11.711,0,0,1-7,4.137V53.043Zm-1.1,32.67c7-1.278,12.593-4.2,16.548-8.578a23.976,23.976,0,0,0,5.962-16.791c0-7-2.19-12.167-6.388-15.209-4.137-3.042-10.038-3.833-17.46-2.433l-9.43,1.764V87.659Z" transform="translate(-51.1 -18.001)" fill="#fff"/>
        </g>
        <g id="Group_2" data-name="Group 2" transform="translate(167.12)">
          <path id="Path_2" data-name="Path 2" d="M353.177,27.813c-1.582-1.825-4.076-3.346-7.726-4.684l-1.582-.548c-1.582-.548-4.2-1.7-4.2-3.224a1.88,1.88,0,0,1,.669-1.4,3.529,3.529,0,0,1,2.068-1.034c3.346-.73,6.51,2.312,6.51,2.312l6.57-8.456a14.892,14.892,0,0,0-6.814-4.38,16.671,16.671,0,0,0-7-.183,16.993,16.993,0,0,0-9.977,5.293,14.333,14.333,0,0,0-3.833,9.977,10.864,10.864,0,0,0,2.373,7.179c1.521,1.825,3.894,3.346,7.361,4.624a24.865,24.865,0,0,1,5.354,2.494,1.715,1.715,0,0,1,.852,1.46,3.016,3.016,0,0,1-.73,2.129,4.005,4.005,0,0,1-2.494,1.156c-4.076.365-7.97-3.1-7.97-3.1L325.8,46.368a18.559,18.559,0,0,0,7.179,4.624,14.884,14.884,0,0,0,4.5.669,22.1,22.1,0,0,0,3.894-.365c4.5-.852,8.091-2.616,10.586-5.354a15.2,15.2,0,0,0,3.833-10.586A11.341,11.341,0,0,0,353.177,27.813Z" transform="translate(-325.8 -5.929)" fill="#fff"/>
        </g>
      </g>
      <g id="Group_4" data-name="Group 4" transform="translate(167.12 52.811)">
        <path id="Path_3" data-name="Path 3" d="M353.177,114.676c-1.582-1.825-4.076-3.346-7.726-4.684l-1.582-.548c-1.582-.548-4.2-1.7-4.2-3.224a1.88,1.88,0,0,1,.669-1.4,3.529,3.529,0,0,1,2.068-1.034c3.346-.73,6.51,2.312,6.51,2.312l6.57-8.456a14.892,14.892,0,0,0-6.814-4.38,15.671,15.671,0,0,0-7-.243,16.993,16.993,0,0,0-9.977,5.293,14.333,14.333,0,0,0-3.833,9.977,10.864,10.864,0,0,0,2.373,7.179c1.521,1.825,3.894,3.346,7.361,4.624a24.865,24.865,0,0,1,5.354,2.494,1.715,1.715,0,0,1,.852,1.46,3.016,3.016,0,0,1-.73,2.129,4.005,4.005,0,0,1-2.494,1.156c-4.076.365-7.97-3.1-7.97-3.1l-6.814,8.943a18.559,18.559,0,0,0,7.179,4.624,14.884,14.884,0,0,0,4.5.669,22.1,22.1,0,0,0,3.894-.365c4.5-.852,8.091-2.616,10.586-5.354a15.2,15.2,0,0,0,3.833-10.586A11.063,11.063,0,0,0,353.177,114.676Z" transform="translate(-325.8 -92.736)" fill="#fff"/>
      </g>
    </g>
    <path id="Path_4" data-name="Path 4" d="M202.411,0,191.4,42.89a9.209,9.209,0,0,0,2.129,5.9c2.251,2.494,4.441,2.494,4.441,2.494Z" transform="translate(-54.945)" fill="#ffc037"/>
    <path id="Path_5" data-name="Path 5" d="M208.6,230.014,220.159,191.2s-.548.608-4.563,1.947a25.119,25.119,0,0,1-4.867,1.278Z" transform="translate(-61.681 -74.879)" fill="#ffc037"/>
    <path id="Path_6" data-name="Path 6" d="M197.818,138.492c1.643-4.2.913-6.51.913-6.51l-1.582.73,2.616-7.118h0l.791-2.129,8.517-22.936-.243-.73-10.342,2.433a27.854,27.854,0,0,1-5.536,1.7,19.152,19.152,0,0,1-4.076.365,16.618,16.618,0,0,1-5.6-.913l-4.684.3L174.7,117.382l12.715-3.894a31.651,31.651,0,0,1,4.076-1.278L177.8,152.972l3.346-1.7,10.768-5.475A17.708,17.708,0,0,0,197.818,138.492Z" transform="translate(-48.405 -39.085)" fill="#ffc037"/>
    <path id="Path_7" data-name="Path 7" d="M181.3,97.31A26.494,26.494,0,0,0,199.43,99.2c10.586-2.494,12.35-5.11,12.35-5.11L215.734,83.5,213,84.778a34.6,34.6,0,0,1-2.433,3.65,24.056,24.056,0,0,1-14.844,9.065,19.152,19.152,0,0,1-4.076.365,16.791,16.791,0,0,1-9.673-2.92h0Z" transform="translate(-50.99 -32.701)" fill="#f7a019"/>
    <path id="Path_8" data-name="Path 8" d="M192.785,76.54a9.229,9.229,0,0,1-2.129-5.84L189.5,75.019a8.377,8.377,0,0,0,2.251,4.441,6.111,6.111,0,0,0,2.008,1.338,6.51,6.51,0,0,0,2.494.426,2.727,2.727,0,0,0,.73-.061l.183-2.068h0A7.344,7.344,0,0,1,192.785,76.54Z" transform="translate(-54.201 -27.688)" fill="#f7a019"/>
    <path id="Path_9" data-name="Path 9" d="M209.992,151.76s.73,2.373-.913,6.51a19.139,19.139,0,0,1-5.78,7.24l5.293-2.677a10.2,10.2,0,0,0,1.947-2.008,14.006,14.006,0,0,0,2.738-8.7,16.187,16.187,0,0,0-.122-1.825Z" transform="translate(-59.606 -58.862)" fill="#f7a019"/>
    <path id="Path_10" data-name="Path 10" d="M238.808,146.714a4.6,4.6,0,0,1-.061.913l2.312-7.726-2.859,1.278A26.148,26.148,0,0,1,238.808,146.714Z" transform="translate(-73.274 -54.789)" fill="#f7a019"/>
    <path id="Path_11" data-name="Path 11" d="M216.928,186.35c4.015-1.278,4.563-1.947,4.563-1.947h0l3.1-10.4a30.267,30.267,0,0,1-2.008,2.859,24.975,24.975,0,0,1-10.342,7.787L212,187.628C212.061,187.688,212.852,187.688,216.928,186.35Z" transform="translate(-63.013 -68.143)" fill="#f7a019"/>
  </g>
</svg>
